<?xml version="1.0" standalone="no"?>
<!DOCTYPE svg PUBLIC "-//W3C//DTD SVG 20010904//EN"
 "http://www.w3.org/TR/2001/REC-SVG-20010904/DTD/svg10.dtd">
<svg version="1.0" xmlns="http://www.w3.org/2000/svg"
 width="2560.000000pt" height="2560.000000pt" viewBox="0 0 2560.000000 2560.000000"
 preserveAspectRatio="xMidYMid meet">
<metadata>
Created by potrace 1.14, written by Peter Selinger 2001-2017
</metadata>
<g transform="translate(0.000000,2560.000000) scale(0.100000,-0.100000)"
fill="#000000" stroke="none">
<path d="M0 12800 l0 -12800 12800 0 12800 0 0 12800 0 12800 -12800 0 -12800
0 0 -12800z m13400 8016 c875 -85 1631 -297 2395 -670 543 -265 1025 -583
1490 -985 138 -119 474 -451 609 -601 908 -1010 1496 -2263 1686 -3589 45
-317 61 -518 67 -861 18 -1032 -172 -1972 -592 -2917 l-67 -151 -97 45 c-355
166 -376 175 -391 165 -37 -23 -20 -38 106 -97 69 -32 128 -64 131 -71 2 -6
-17 -53 -42 -104 -25 -51 -44 -97 -42 -104 3 -6 46 -33 96 -59 50 -27 91 -52
91 -57 0 -13 -149 -271 -230 -400 -101 -161 -114 -180 -124 -180 -5 0 -49 23
-98 51 -49 28 -93 47 -97 43 -5 -5 -41 -53 -82 -108 l-73 -98 34 -29 c19 -16
59 -45 87 -66 29 -21 53 -42 53 -46 0 -22 -387 -499 -441 -544 -12 -9 -29 0
-87 48 -40 33 -77 59 -82 57 -4 -2 -49 -42 -100 -90 l-92 -88 71 -77 71 -78
-83 -83 c-69 -70 -340 -315 -400 -361 -16 -13 -22 -10 -60 25 -23 22 -56 52
-74 68 l-32 29 -106 -94 c-58 -51 -104 -98 -101 -104 2 -5 22 -41 45 -80 l40
-70 -22 -18 c-86 -67 -521 -357 -537 -357 -3 0 -31 36 -63 80 l-58 80 -57 -32
c-58 -32 -195 -109 -199 -113 -2 -1 15 -44 37 -95 22 -51 39 -94 37 -96 -23
-20 -564 -274 -584 -274 -5 0 -26 34 -48 76 -22 42 -45 78 -51 81 -8 3 -260
-90 -270 -100 -2 -1 8 -41 21 -87 14 -47 25 -88 25 -92 0 -16 -612 -204 -630
-193 -3 2 -20 43 -36 90 -19 57 -34 85 -44 85 -41 -1 -275 -57 -273 -65 0 -6
4 -51 8 -101 l7 -90 -53 -12 c-140 -30 -596 -95 -609 -87 -4 2 -15 44 -25 92
-10 48 -20 91 -24 94 -3 3 -69 1 -146 -5 l-140 -11 -3 -97 -3 -96 -62 -7 c-83
-9 -613 -2 -623 8 -8 8 -9 17 -12 144 l-2 71 -92 7 c-51 4 -117 8 -147 8 l-55
2 -22 -103 c-12 -57 -24 -105 -25 -107 -11 -9 -644 88 -658 101 -2 2 0 52 6
111 5 60 9 109 9 110 -1 1 -66 15 -144 31 l-143 30 -8 -22 c-5 -11 -21 -57
-36 -101 -16 -44 -29 -81 -29 -82 -1 -1 -69 17 -151 41 -222 63 -475 149 -475
161 0 5 11 51 24 100 14 50 21 93 18 97 -4 4 -61 28 -127 53 -66 26 -125 49
-131 51 -6 3 -32 -36 -59 -86 -26 -49 -52 -90 -58 -90 -32 0 -577 263 -577
278 0 5 18 51 40 102 22 52 37 97 33 101 -8 8 -244 139 -250 139 -1 0 -28 -35
-59 -77 -32 -43 -60 -82 -64 -86 -11 -13 -413 248 -534 346 l-30 24 47 83 c26
45 47 85 46 89 -1 8 -192 174 -205 178 -5 2 -43 -26 -83 -62 -41 -36 -78 -65
-84 -65 -24 0 -487 431 -487 453 0 5 32 43 72 83 l72 75 -96 96 -96 96 -83
-69 -82 -68 -44 49 c-119 133 -275 326 -405 501 -5 7 24 35 82 80 51 38 88 74
86 80 -10 26 -147 204 -157 204 -6 0 -49 -23 -96 -51 -47 -27 -91 -48 -97 -46
-6 3 -57 78 -112 168 -94 151 -124 204 -213 361 l-32 57 100 51 c56 27 101 55
101 60 0 5 -21 55 -47 110 -25 55 -44 102 -42 104 2 3 48 25 102 50 53 24 97
49 97 54 0 4 -6 16 -13 26 -12 17 -27 11 -219 -78 -114 -53 -209 -96 -213 -96
-14 0 -172 376 -259 620 -443 1227 -518 2601 -211 3885 230 962 685 1897 1296
2660 173 217 268 324 479 539 547 557 1099 965 1765 1307 864 443 1732 682
2715 749 194 13 829 4 1020 -14z m-7286 -11171 l317 -469 -23 -18 c-38 -29 18
-103 -510 679 l-177 262 27 20 c21 15 30 17 38 8 7 -7 154 -223 328 -482z
m13588 192 c-417 -617 -468 -691 -477 -694 -5 -1 -20 5 -33 15 l-23 18 182
269 c100 149 247 366 326 483 l144 212 29 -20 29 -21 -177 -262z m-13633 -737
c297 -311 541 -569 541 -575 -1 -5 -11 -18 -24 -27 l-24 -17 -203 212 c-352
367 -629 657 -762 795 l-129 134 23 24 c13 13 26 23 30 22 4 -2 250 -257 548
-568z m14040 546 l22 -24 -546 -570 -547 -571 -24 16 c-14 9 -24 22 -22 29 2
8 230 251 508 540 278 290 520 544 538 566 19 21 37 38 41 38 4 0 18 -11 30
-24z m-13290 -469 c88 -191 161 -349 161 -352 0 -2 -13 -11 -30 -20 l-29 -15
-34 72 c-19 40 -93 200 -165 355 -73 155 -132 285 -132 290 0 11 53 32 61 24
4 -3 79 -162 168 -354z m12191 330 c0 -5 -59 -135 -132 -290 -72 -155 -146
-315 -165 -355 l-34 -72 -29 15 c-17 9 -30 18 -30 20 0 3 64 141 141 308 78
166 152 325 165 354 23 51 23 52 54 40 16 -6 30 -15 30 -20z m-11941 -442 c68
-159 125 -295 127 -301 5 -11 -52 -41 -61 -32 -8 7 -255 596 -255 606 0 12 53
32 61 23 3 -3 61 -136 128 -296z m11647 261 c-6 -23 -244 -588 -251 -595 -9
-8 -66 22 -61 33 2 6 57 135 121 286 64 151 121 285 126 297 7 20 11 21 39 11
25 -8 30 -15 26 -32z m-11405 -153 c6 -16 71 -205 145 -421 l133 -393 -25 -9
c-14 -6 -29 -10 -33 -10 -9 0 -26 48 -145 397 -41 122 -91 267 -111 323 -19
56 -35 106 -35 110 0 7 28 21 58 29 1 1 7 -11 13 -26z m11049 -2 c0 -5 -18
-61 -41 -127 -121 -353 -239 -698 -239 -701 0 -6 -19 -3 -44 7 l-25 9 133 393
c171 503 149 449 186 437 16 -6 30 -14 30 -18z m-12072 -730 l543 -495 -25
-24 -25 -25 -38 33 c-138 121 -1253 1142 -1253 1147 0 4 10 17 21 30 l22 22
106 -97 c58 -53 350 -319 649 -591z m13822 638 c0 -4 -278 -261 -617 -570
-340 -309 -630 -574 -646 -588 l-27 -25 -26 25 -25 25 648 591 648 591 23 -21
c12 -11 22 -24 22 -28z m-13417 -150 c111 -69 220 -162 274 -233 56 -74 113
-193 113 -236 0 -39 -56 -100 -92 -100 -35 0 -142 67 -208 131 -113 111 -197
261 -265 476 l-23 72 61 -31 c34 -17 97 -52 140 -79z m12392 39 c-68 -216
-152 -366 -265 -477 -66 -64 -173 -131 -208 -131 -36 0 -92 61 -92 100 0 43
57 162 113 236 50 65 156 158 252 219 47 30 214 124 222 125 1 0 -9 -33 -22
-72z m-11289 -596 c103 -298 185 -544 182 -547 -2 -3 -18 -7 -34 -11 -29 -5
-29 -5 -61 88 -17 51 -102 297 -188 546 -86 250 -155 455 -153 456 18 12 54
22 60 17 4 -3 91 -250 194 -549z m666 -379 l476 -938 -31 -16 -32 -17 -138
272 c-76 149 -260 512 -409 806 -149 294 -302 595 -340 668 -39 73 -68 135
-67 136 12 10 46 25 55 26 5 0 224 -422 486 -937z m9191 926 c12 -7 24 -13 26
-15 1 -1 -28 -63 -67 -136 -38 -73 -196 -383 -350 -688 -155 -305 -339 -668
-409 -806 l-128 -251 -32 15 -32 15 186 366 c102 201 245 483 318 626 73 143
203 401 291 573 87 171 162 312 167 312 4 0 18 -5 30 -11z m405 -15 c2 -1 -81
-248 -185 -548 -140 -407 -192 -546 -204 -546 -8 0 -23 6 -33 13 -16 12 -10
34 84 307 183 531 270 782 276 791 4 6 42 -4 62 -17z m-9928 -734 c161 -393
294 -722 297 -730 3 -10 -7 -19 -27 -27 -31 -12 -31 -11 -51 34 -11 25 -138
336 -283 692 -146 355 -274 668 -285 694 l-21 48 33 14 c24 10 34 10 38 2 4
-7 138 -334 299 -727z m9703 704 c-1 -5 -94 -236 -208 -514 -114 -278 -240
-586 -280 -685 -123 -301 -109 -276 -145 -262 -20 8 -30 17 -27 27 3 8 132
326 287 705 155 380 289 707 297 727 15 37 15 37 46 24 18 -7 31 -17 30 -22z
m-9528 -246 c260 -571 647 -1284 982 -1809 51 -81 95 -153 98 -161 4 -9 -4
-22 -20 -32 -15 -10 -28 -16 -30 -14 -12 13 -170 263 -255 403 -303 500 -612
1083 -853 1613 l-65 142 26 15 c15 8 30 14 33 15 3 0 41 -78 84 -172z m9105
157 l29 -15 -33 -72 c-278 -610 -572 -1166 -896 -1698 -91 -150 -235 -377
-246 -389 -2 -2 -15 4 -29 13 -17 11 -24 23 -21 33 4 9 48 81 99 162 350 549
744 1277 1007 1864 29 64 55 117 57 117 2 0 17 -7 33 -15z m-10068 -329 c101
-147 150 -286 151 -425 1 -82 0 -84 -31 -112 -66 -59 -116 -32 -185 98 -66
127 -82 204 -82 403 0 96 4 184 8 194 6 16 14 11 53 -40 26 -32 64 -85 86
-118z m11063 -29 c0 -207 -15 -282 -82 -410 -69 -130 -119 -157 -185 -98 -31
27 -32 31 -32 107 1 169 61 313 217 521 40 52 65 78 72 72 5 -5 9 -89 10 -192z
m-12352 -264 c260 -174 615 -413 790 -530 l317 -214 -21 -30 -21 -29 -226 153
c-125 84 -480 323 -789 531 l-561 377 16 29 c9 17 19 30 20 30 2 0 216 -142
475 -317z m13986 288 l21 -29 -367 -247 c-203 -135 -558 -374 -790 -531 l-422
-284 -21 30 -20 29 422 284 c233 157 587 395 788 530 201 136 366 246 367 247
1 0 11 -13 22 -29z m-13184 -111 c162 -78 287 -185 348 -299 43 -77 25 -139
-43 -156 -67 -16 -264 128 -353 259 -40 59 -118 210 -132 254 l-6 22 53 -20
c29 -12 89 -39 133 -60z m12045 -1 c-87 -197 -222 -355 -362 -424 -71 -35 -80
-37 -108 -25 -70 29 -76 78 -22 169 46 79 145 173 242 231 73 43 271 132 278
125 2 -2 -11 -36 -28 -76z m-11234 -207 c83 -105 115 -155 162 -248 53 -104
72 -182 72 -292 0 -74 -3 -94 -20 -115 -23 -30 -80 -51 -110 -42 -52 17 -130
141 -171 275 -20 65 -24 96 -24 230 0 153 10 270 23 270 4 -1 34 -36 68 -78z
m10351 21 c4 -32 8 -128 8 -213 0 -168 -16 -242 -72 -355 -64 -127 -113 -167
-177 -145 -61 20 -76 49 -76 152 0 49 5 110 11 136 14 59 87 216 130 279 44
66 152 202 161 203 4 0 10 -26 15 -57z m-9003 -309 c161 -242 445 -589 681
-833 153 -157 438 -410 574 -508 3 -2 -7 -15 -21 -30 l-27 -26 -118 95 c-310
251 -603 550 -874 893 -97 122 -232 304 -284 383 l-29 44 25 19 c13 10 27 19
30 19 3 0 23 -25 43 -56z m7641 40 c14 -9 25 -20 25 -24 0 -13 -201 -290 -308
-425 -275 -345 -565 -642 -876 -893 l-118 -96 -24 27 -24 28 101 81 c363 288
714 660 1031 1088 46 63 102 141 123 173 21 31 40 57 42 57 2 0 15 -7 28 -16z
m-9640 -34 c220 -49 345 -109 459 -222 77 -77 79 -79 73 -120 -7 -55 -37 -83
-85 -82 -50 2 -170 45 -240 86 -93 55 -255 219 -327 331 -17 27 -17 27 6 27
13 0 65 -9 114 -20z m11690 -7 c-75 -116 -233 -275 -327 -331 -70 -41 -190
-84 -240 -86 -48 -1 -78 27 -85 82 -6 41 -4 43 73 120 113 111 238 172 454
221 47 11 98 20 114 20 l28 1 -17 -27z m-11707 -587 l693 -346 -16 -30 c-9
-16 -17 -30 -19 -30 -2 0 -383 189 -847 420 -464 231 -848 421 -853 423 -5 2
-1 17 8 34 l16 32 162 -79 c90 -43 475 -234 856 -424z m12638 472 c9 -18 13
-33 8 -35 -5 -2 -389 -192 -853 -423 -463 -231 -845 -420 -847 -420 -2 0 -11
14 -19 30 l-16 31 853 424 c469 234 854 425 855 425 1 0 10 -14 19 -32z
m-11550 -114 c193 -212 274 -370 274 -537 0 -61 -2 -67 -31 -91 -47 -40 -95
-36 -141 12 -82 85 -146 219 -175 362 -17 91 -28 340 -14 340 5 0 45 -39 87
-86z m9520 -46 c-3 -73 -11 -167 -19 -208 -29 -143 -93 -277 -175 -362 -46
-48 -94 -52 -141 -12 -29 24 -31 31 -31 90 0 36 5 86 11 112 16 67 91 217 141
284 58 75 197 228 209 228 5 0 7 -57 5 -132z m-9926 -247 c106 -28 211 -82
273 -142 44 -42 47 -49 47 -96 0 -35 -6 -58 -19 -74 -18 -22 -26 -24 -108 -23
-185 1 -353 81 -567 270 -84 74 -88 79 -65 86 13 4 98 6 189 4 131 -3 183 -8
250 -25z m10679 20 c23 -6 18 -12 -65 -85 -214 -189 -382 -269 -567 -270 -82
-1 -90 1 -108 23 -13 16 -19 39 -19 74 0 48 3 54 49 98 80 77 237 143 386 162
52 7 299 5 324 -2z m-9839 -137 c202 -163 312 -326 336 -496 6 -44 4 -50 -24
-78 -24 -23 -39 -30 -69 -30 -34 0 -47 7 -98 57 -132 129 -202 298 -229 556
-7 68 -11 68 84 -9z m8640 -25 c-31 -245 -96 -396 -227 -524 -49 -48 -62 -55
-96 -55 -30 0 -45 7 -69 31 -28 28 -30 34 -24 77 17 129 81 248 200 371 71 73
215 195 222 188 2 -2 -1 -41 -6 -88z m-9335 -517 l400 -99 -2 -32 c0 -18 -3
-34 -5 -36 -2 -2 -1326 324 -1781 438 -24 7 -26 11 -21 35 4 15 8 30 10 33 3
6 281 -62 1399 -339z m11359 306 c5 -24 3 -28 -21 -35 -392 -99 -1779 -440
-1781 -438 -2 2 -5 18 -5 36 l-2 32 895 222 c492 122 898 219 901 216 4 -3 9
-18 13 -33z m-10933 -103 c89 -19 210 -76 238 -111 27 -35 28 -93 1 -122 -27
-29 -72 -35 -198 -29 -122 5 -205 28 -326 88 -88 45 -237 141 -230 149 3 3 49
12 102 21 127 22 319 23 413 4z m850 -113 c124 -134 197 -278 201 -395 2 -59
-28 -97 -77 -97 -26 0 -42 10 -77 48 -111 119 -164 260 -184 492 l-7 84 41
-33 c23 -17 69 -62 103 -99z m7535 46 c-20 -230 -73 -372 -184 -490 -51 -55
-90 -63 -129 -26 -49 46 -18 203 69 336 38 60 227 262 244 262 4 0 3 -37 0
-82z m1107 66 c62 -9 115 -19 119 -23 10 -8 -131 -101 -228 -150 -125 -62
-203 -83 -335 -88 -74 -4 -129 -1 -151 6 -58 19 -77 94 -37 145 26 34 151 93
231 111 87 19 267 18 401 -1z m-9009 -349 c112 -20 202 -54 286 -110 91 -60
118 -105 104 -173 -16 -79 -77 -105 -214 -91 -187 20 -361 116 -569 311 -53
51 -66 68 -53 71 45 12 365 6 446 -8z m8563 9 l30 -6 -85 -80 c-196 -185 -371
-279 -552 -296 -108 -10 -158 -1 -186 33 -44 56 -40 127 10 177 73 74 209 138
343 162 79 14 384 21 440 10z m-7679 -100 c122 -66 236 -169 411 -371 79 -91
138 -130 306 -206 543 -242 1130 -365 2162 -452 l303 -25 302 25 c1078 90
1708 228 2247 493 126 62 130 65 340 290 163 176 270 252 429 306 82 28 82 29
51 -65 -34 -104 -79 -180 -149 -249 -70 -71 -148 -117 -262 -156 -107 -36
-133 -67 -83 -100 24 -16 29 -14 162 49 275 130 424 151 611 85 34 -12 62 -25
62 -28 0 -11 -312 -158 -391 -184 -120 -40 -203 -49 -334 -37 -146 13 -261 1
-375 -41 -727 -263 -1141 -345 -2266 -449 l-341 -31 -344 31 c-1122 103 -1532
184 -2269 450 -114 41 -230 53 -375 40 -131 -12 -215 -3 -334 37 -81 27 -391
173 -391 184 0 3 29 16 63 29 185 65 337 43 610 -86 133 -63 138 -65 162 -49
50 33 24 64 -83 100 -215 73 -345 201 -411 405 -12 35 -21 70 -21 77 0 18 123
-25 208 -72z m857 -39 c50 -8 115 -22 145 -31 141 -41 290 -153 290 -217 0
-54 -24 -77 -78 -77 -137 1 -318 112 -466 284 l-48 56 34 0 c18 0 74 -7 123
-15z m4759 -41 c-148 -172 -329 -283 -466 -284 -54 0 -78 23 -78 77 0 65 150
177 294 218 73 21 197 43 254 44 l44 1 -48 -56z m-4176 6 c144 -28 263 -85
337 -160 41 -42 49 -55 48 -85 -2 -73 -45 -89 -157 -60 -113 30 -192 80 -313
201 -62 61 -113 116 -113 121 0 10 107 1 198 -17z m3653 -18 c-62 -79 -198
-198 -268 -235 -74 -39 -166 -67 -219 -67 -40 0 -66 29 -67 76 -1 33 6 43 57
91 60 56 135 99 221 126 77 25 287 59 304 50 2 -1 -11 -20 -28 -41z m-3026
-108 c129 -41 231 -100 307 -176 37 -36 70 -79 74 -94 9 -36 -5 -73 -37 -97
-26 -18 -29 -19 -85 -2 -109 31 -192 83 -289 180 -74 73 -185 216 -185 238 0
8 130 -22 215 -49z m2399 -26 c-27 -40 -89 -114 -139 -163 -97 -97 -179 -148
-289 -180 -56 -17 -59 -16 -85 2 -32 24 -46 61 -37 97 4 15 37 58 74 94 100
100 242 169 437 212 44 9 82 16 84 14 2 -1 -19 -36 -45 -76z m-5532 -64 c459
-76 478 -80 478 -101 0 -49 -4 -51 -88 -36 -42 8 -261 45 -485 82 -224 38
-410 71 -413 73 -9 9 9 69 20 65 6 -2 226 -39 488 -83z m9002 54 c3 -17 2 -34
-3 -37 -18 -12 -959 -163 -970 -157 -6 4 -11 19 -11 34 l0 27 483 81 c265 45
485 82 488 83 4 1 9 -13 13 -31z m-5279 -59 c205 -30 374 -109 457 -214 30
-38 27 -94 -7 -122 -31 -27 -46 -28 -139 -8 -78 16 -172 58 -243 106 -54 37
-190 165 -235 221 l-30 38 64 -6 c35 -3 95 -10 133 -15z m1216 -18 c-52 -65
-205 -204 -264 -240 -81 -48 -162 -78 -245 -92 -68 -11 -75 -11 -100 8 -52 39
-48 94 12 155 122 123 302 184 609 207 16 1 14 -5 -12 -38z m-2045 -162 c36
-18 56 -70 42 -111 -8 -21 -27 -36 -82 -62 -103 -50 -214 -70 -350 -63 -104 5
-262 31 -278 45 -11 10 167 112 260 150 46 18 111 40 145 48 74 16 221 13 263
-7z m2967 6 c37 -8 104 -29 150 -47 93 -38 270 -140 259 -150 -16 -15 -175
-40 -283 -45 -90 -4 -134 -2 -195 12 -92 20 -191 63 -218 93 -23 26 -23 74 -2
107 28 43 163 57 289 30z m-2377 -197 c23 -11 44 -47 44 -78 0 -51 -154 -116
-297 -126 -82 -6 -219 9 -307 34 l-30 8 60 36 c126 76 233 121 332 138 54 10
165 3 198 -12z m1814 -10 c71 -22 153 -61 244 -116 l60 -36 -30 -8 c-213 -59
-457 -39 -569 47 -37 27 -42 48 -24 89 27 58 173 69 319 24z m-1153 -60 c103
-96 -134 -229 -405 -227 -53 0 -117 4 -142 7 l-45 7 90 68 c153 114 278 165
409 166 58 1 74 -3 93 -21z m418 7 c86 -23 191 -78 292 -154 l88 -66 -45 -7
c-78 -11 -242 -8 -311 6 -79 17 -182 62 -226 100 -40 34 -44 78 -11 113 18 20
31 23 88 23 36 0 93 -7 125 -15z"/>
<path d="M12435 20753 c-945 -56 -1797 -279 -2630 -689 -504 -247 -986 -568
-1445 -960 -143 -122 -545 -523 -667 -665 -398 -462 -720 -944 -972 -1454
-376 -761 -590 -1516 -678 -2395 -25 -251 -25 -959 0 -1215 61 -618 191 -1190
393 -1733 92 -247 190 -468 206 -464 7 2 95 42 195 89 l182 85 -13 32 c-310
709 -465 1294 -542 2040 -21 206 -30 775 -15 992 79 1145 424 2180 1038 3114
753 1145 1844 2013 3121 2484 494 182 1010 297 1602 358 170 18 920 18 1095 0
190 -19 341 -39 508 -67 966 -164 1894 -563 2692 -1157 417 -310 854 -732
1180 -1141 423 -530 771 -1149 1007 -1792 557 -1517 508 -3247 -134 -4723 -27
-63 -48 -120 -46 -128 4 -18 429 -218 439 -207 16 16 160 366 222 538 219 605
346 1223 388 1885 15 235 7 797 -15 1020 -72 727 -238 1386 -513 2030 -500
1170 -1310 2168 -2361 2908 -476 335 -1028 622 -1587 825 -593 215 -1224 345
-1875 387 -147 9 -643 11 -775 3z"/>
<path d="M12425 19004 c-279 -139 -897 -444 -2956 -1459 -658 -325 -1195 -592
-1194 -594 5 -4 9068 18 9072 23 2 2 -344 165 -769 363 -3305 1541 -3867 1803
-3875 1802 -4 0 -129 -61 -278 -135z m1192 -413 c494 -230 1368 -638 1943
-906 575 -268 1096 -511 1158 -540 62 -29 115 -55 118 -57 3 -3 -1596 -8
-3553 -12 -1957 -3 -3773 -7 -4036 -9 -262 -1 -477 1 -477 6 0 4 4 7 9 7 4 0
291 140 637 311 346 171 697 344 779 384 83 40 429 211 770 380 341 169 670
331 730 360 61 29 310 152 555 274 245 121 450 220 457 221 6 0 415 -188 910
-419z"/>
<path d="M12688 18253 c7 -3 16 -2 19 1 4 3 -2 6 -13 5 -11 0 -14 -3 -6 -6z"/>
<path d="M12608 18243 c7 -3 16 -2 19 1 4 3 -2 6 -13 5 -11 0 -14 -3 -6 -6z"/>
<path d="M12700 18241 l-65 -6 85 -6 c47 -4 92 -3 100 2 9 5 2 7 -20 3 -26 -4
-31 -3 -20 5 13 10 13 11 0 9 -8 -1 -44 -4 -80 -7z"/>
<path d="M12580 18230 c8 -5 24 -10 34 -10 26 0 18 6 -19 14 -22 5 -26 4 -15
-4z"/>
<path d="M12832 18221 c-10 -6 -8 -10 9 -14 12 -3 30 -2 38 4 12 8 10 8 -8 3
-16 -4 -21 -3 -17 5 8 13 -3 14 -22 2z"/>
<path d="M12417 18203 c-12 -11 -8 -38 8 -59 13 -17 13 -16 3 13 -16 42 -6 50
24 20 17 -17 21 -28 15 -39 -7 -10 4 -46 37 -120 25 -59 44 -113 43 -120 -2
-7 -2 -9 1 -4 3 5 13 -6 24 -25 31 -56 10 2 -47 133 l-54 123 22 25 c13 14 29
34 37 45 15 20 14 20 -8 1 -12 -11 -22 -16 -22 -11 0 4 -7 2 -15 -5 -13 -11
-18 -10 -31 8 -16 23 -26 27 -37 15z"/>
<path d="M12890 18200 c-8 -5 -10 -10 -5 -10 6 0 16 -4 23 -9 11 -7 9 -19 -12
-60 -29 -56 -29 -56 -57 -40 -37 19 -129 29 -179 18 -46 -10 -137 -66 -125
-77 3 -3 18 7 33 21 35 33 79 47 153 47 76 0 119 -16 119 -44 0 -24 17 -46 36
-46 7 0 25 21 40 48 20 33 29 42 32 30 2 -10 10 -18 19 -18 10 0 13 -6 8 -17
-5 -15 -4 -16 7 -5 11 11 10 16 -5 27 -15 11 -16 17 -8 34 10 17 7 23 -14 37
-22 15 -38 43 -16 30 5 -4 8 2 6 11 -1 12 -10 17 -24 16 -13 -2 -20 1 -16 7 8
12 4 12 -15 0z m46 -83 c-4 -30 -54 -109 -66 -102 -5 3 5 35 22 70 31 63 49
76 44 32z m27 -12 c-7 -21 -12 -19 -10 4 0 11 5 18 9 15 4 -3 5 -11 1 -19z"/>
<path d="M12443 18089 c3 -9 -4 -21 -15 -28 -11 -7 -17 -19 -14 -26 3 -8 1
-17 -4 -20 -5 -3 -9 -22 -8 -41 1 -19 4 -30 8 -23 4 6 5 20 3 30 -3 11 0 25 6
32 6 8 8 17 4 21 -4 4 2 15 14 24 17 13 20 20 12 32 -10 13 -10 13 -6 -1z"/>
<path d="M12625 18060 c3 -5 10 -10 16 -10 5 0 9 5 9 10 0 6 -7 10 -16 10 -8
0 -12 -4 -9 -10z"/>
<path d="M12750 18030 c6 -11 15 -18 20 -15 5 3 16 -7 24 -22 8 -15 15 -23 16
-18 0 16 -29 54 -51 66 -19 10 -20 9 -9 -11z"/>
<path d="M12471 18016 c-11 -13 -28 -76 -18 -66 7 7 37 80 33 80 -2 0 -9 -6
-15 -14z"/>
<path d="M12669 18013 c-19 -5 -33 -43 -20 -56 4 -4 13 -1 20 7 10 12 17 9 44
-21 29 -31 33 -33 34 -14 1 11 -2 23 -8 26 -5 4 -6 -2 -2 -12 6 -16 5 -16 -10
-4 -9 7 -14 17 -11 22 3 5 -2 12 -11 15 -11 5 -13 10 -5 19 5 6 7 15 3 18 -7
7 -8 7 -34 0z m11 -28 c-13 -14 -26 -23 -28 -20 -7 7 29 45 41 45 6 0 0 -11
-13 -25z"/>
<path d="M12989 18012 c8 -6 11 -17 8 -26 -3 -8 -2 -18 3 -21 7 -4 7 -80 0
-80 -2 0 -3 -12 -4 -27 -1 -15 2 -24 7 -21 4 3 6 12 3 20 -3 8 -3 20 1 26 11
17 14 87 5 87 -5 0 -8 10 -8 21 1 12 -6 24 -14 26 -12 4 -13 3 -1 -5z"/>
<path d="M12485 18000 c-3 -5 -1 -18 4 -27 9 -16 10 -14 11 10 0 28 -5 34 -15
17z"/>
<path d="M12771 17978 c0 -14 -4 -35 -7 -45 -5 -17 -5 -17 6 0 6 10 9 30 7 45
l-4 27 -2 -27z"/>
<path d="M12885 17980 c-3 -5 -1 -10 4 -10 6 0 11 5 11 10 0 6 -2 10 -4 10 -3
0 -8 -4 -11 -10z"/>
<path d="M12921 17981 c-8 -5 -9 -11 -3 -15 5 -3 12 1 16 9 6 17 6 18 -13 6z"/>
<path d="M12605 17970 c-3 -5 -1 -10 4 -10 6 0 11 5 11 10 0 6 -2 10 -4 10 -3
0 -8 -4 -11 -10z"/>
<path d="M12916 17935 c-3 -8 -1 -15 4 -15 6 0 10 7 10 15 0 8 -2 15 -4 15 -2
0 -6 -7 -10 -15z"/>
<path d="M12491 17924 c0 -11 3 -14 6 -6 3 7 2 16 -1 19 -3 4 -6 -2 -5 -13z"/>
<path d="M12634 17931 c3 -5 -1 -14 -9 -21 -20 -17 -19 -30 3 -30 13 0 14 2 3
9 -10 7 -10 10 -1 16 7 4 15 4 19 -1 3 -5 14 -10 23 -10 24 -2 12 21 -18 35
-14 6 -23 7 -20 2z"/>
<path d="M12788 17915 c-15 -20 -15 -25 -3 -35 8 -6 19 -9 25 -5 16 10 2 25
-18 18 -15 -6 -15 -4 2 15 11 12 17 24 15 26 -2 2 -12 -6 -21 -19z"/>
<path d="M12932 17898 c-10 -38 -9 -41 4 -24 12 18 20 66 10 66 -2 0 -8 -19
-14 -42z"/>
<path d="M12404 17912 c3 -5 0 -12 -6 -15 -10 -3 -10 -8 2 -22 8 -10 15 -23
16 -29 0 -6 2 -17 2 -23 1 -7 9 -13 18 -13 8 0 12 -5 9 -10 -4 -6 -2 -17 5
-25 7 -9 8 -15 0 -20 -17 -11 -11 -34 13 -45 20 -10 20 -10 5 3 -21 17 -23 34
-5 40 9 3 9 8 -3 21 -13 16 -12 20 5 33 12 9 14 13 5 10 -21 -6 -52 12 -46 28
2 7 -2 19 -10 26 -10 8 -11 15 -4 24 8 10 8 15 -1 21 -7 4 -9 3 -5 -4z"/>
<path d="M12460 17907 c0 -21 21 -67 31 -67 4 0 1 17 -8 38 -18 45 -23 51 -23
29z"/>
<path d="M12500 17878 c0 -19 29 -58 30 -40 0 8 5 10 13 6 7 -5 6 2 -4 16 -19
28 -39 38 -39 18z m30 -18 c0 -5 -2 -10 -4 -10 -3 0 -8 5 -11 10 -3 6 -1 10 4
10 6 0 11 -4 11 -10z"/>
<path d="M12713 17883 c9 -2 25 -2 35 0 9 3 1 5 -18 5 -19 0 -27 -2 -17 -5z"/>
<path d="M12867 17883 c-12 -12 -7 -22 8 -17 8 4 15 10 15 15 0 11 -14 12 -23
2z"/>
<path d="M12544 17808 c-6 -20 -7 -21 -19 -4 -7 9 -16 13 -19 8 -3 -5 8 -22
24 -37 17 -16 30 -23 30 -16 0 7 6 11 13 8 8 -3 14 0 14 7 0 7 -6 13 -14 13
-7 0 -13 -4 -13 -9 0 -5 -4 -7 -10 -3 -5 3 -7 12 -4 20 4 8 10 12 15 9 5 -3 9
-1 9 5 0 21 -19 20 -26 -1z"/>
<path d="M12599 17812 c15 -12 22 -25 18 -36 -4 -10 1 -19 13 -26 29 -16 38
-11 10 5 l-25 14 23 1 c13 0 20 4 17 10 -4 6 -10 8 -15 5 -4 -3 -10 2 -13 9
-3 8 -16 20 -29 26 -23 11 -23 11 1 -8z"/>
<path d="M12826 17814 c-9 -24 -7 -28 9 -14 17 14 20 30 6 30 -5 0 -12 -7 -15
-16z"/>
<path d="M12880 17805 c-13 -14 -21 -27 -18 -30 2 -3 17 9 33 25 16 17 24 30
19 30 -6 0 -21 -11 -34 -25z"/>
<path d="M12973 17820 c2 -8 -2 -23 -11 -33 -8 -9 -13 -19 -11 -21 2 -2 11 6
21 18 11 16 13 27 6 37 -8 12 -9 12 -5 -1z"/>
<path d="M12706 17779 c-14 -17 -26 -36 -26 -42 0 -12 59 53 60 66 0 13 -8 7
-34 -24z"/>
<path d="M12773 17772 c1 -12 6 -18 15 -15 7 3 10 9 5 12 -4 3 -11 10 -15 15
-4 4 -6 -1 -5 -12z"/>
<path d="M12740 17759 c0 -5 5 -7 10 -4 6 3 10 8 10 11 0 2 -4 4 -10 4 -5 0
-10 -5 -10 -11z"/>
<path d="M12790 17745 c-16 -9 -19 -14 -9 -15 8 0 24 7 35 15 24 18 7 19 -26
0z"/>
<path d="M12946 17728 c-25 -25 -27 -31 -17 -51 l12 -22 -5 24 c-3 16 3 30 22
46 15 13 25 25 22 27 -3 2 -18 -9 -34 -24z"/>
<path d="M12608 17728 c5 -5 16 -8 23 -6 8 3 3 7 -10 11 -17 4 -21 3 -13 -5z"/>
<path d="M12678 17700 c-6 -10 -18 -16 -25 -13 -7 3 -13 1 -13 -5 0 -6 -3 -18
-6 -26 -5 -12 -2 -15 10 -10 11 4 16 1 16 -10 0 -9 6 -16 13 -17 6 0 0 -5 -16
-11 -25 -9 -29 -28 -6 -28 6 0 8 4 5 9 -8 13 53 22 74 11 20 -11 30 -4 30 21
0 9 6 20 13 22 9 4 9 8 -3 16 -20 14 -28 6 -22 -24 2 -15 0 -25 -7 -25 -7 0
-10 4 -7 8 3 5 -8 7 -23 4 -24 -3 -31 1 -44 27 -9 17 -12 29 -7 26 5 -3 16 3
26 12 22 22 41 25 48 7 3 -8 12 -14 21 -14 13 0 12 3 -3 18 -24 24 -60 25 -74
2z"/>
<path d="M12750 17710 c0 -5 5 -10 10 -10 6 0 10 5 10 10 0 6 -4 10 -10 10 -5
0 -10 -4 -10 -10z"/>
<path d="M12493 17671 c-2 -22 4 -31 23 -40 37 -16 44 -13 10 5 -18 10 -25 19
-17 23 8 5 8 12 -2 24 -11 15 -12 14 -14 -12z"/>
<path d="M12840 17620 c-8 -5 -10 -10 -5 -10 6 0 17 5 25 10 8 5 11 10 5 10
-5 0 -17 -5 -25 -10z"/>
<path d="M12786 17595 c-15 -8 -47 -16 -70 -17 l-41 -1 39 -4 c33 -4 106 19
106 32 0 7 -2 6 -34 -10z"/>
<path d="M11047 16683 c-4 -38 -7 -152 -7 -255 l0 -188 53 0 c163 0 278 -97
357 -302 l33 -83 -7 -1498 -6 -1498 -24 -48 c-77 -151 -227 -253 -406 -277
l-50 -7 0 -338 0 -338 589 -1 c324 0 592 3 594 7 3 5 8 157 12 339 l7 330 -84
17 c-117 23 -220 77 -275 145 -81 100 -76 -28 -68 1690 l8 1525 35 70 c44 89
140 188 214 222 147 67 268 47 371 -64 92 -99 146 -257 162 -479 l7 -102 49 0
49 0 0 503 c0 276 -3 546 -7 600 l-6 97 -797 0 -797 0 -6 -67z"/>
<path d="M12970 16150 l0 -600 43 0 44 0 6 106 c21 341 139 574 289 574 88 0
202 -95 271 -228 l37 -70 -1 -1323 c-1 -728 -4 -1427 -7 -1554 -7 -226 -8
-231 -35 -287 -62 -127 -190 -210 -359 -233 l-48 -6 0 -287 c0 -158 3 -311 7
-340 l6 -52 586 2 586 3 2 335 c1 184 0 344 -3 355 -4 18 -13 20 -87 20 -72 0
-89 4 -136 30 -67 37 -139 117 -187 208 l-36 69 7 1532 c6 1492 7 1533 26
1593 11 34 37 88 58 120 82 126 193 165 309 107 91 -45 163 -152 204 -303 16
-59 21 -108 22 -223 l1 -148 38 0 37 0 0 600 0 600 -840 0 -840 0 0 -600z"/>
<path d="M14930 16493 l0 -260 53 -6 c122 -13 218 -74 261 -166 21 -45 21 -57
26 -951 5 -820 8 -911 23 -964 72 -245 286 -406 542 -408 113 -1 188 16 282
63 l73 37 0 -278 0 -278 -31 -89 c-95 -270 -250 -480 -476 -646 l-52 -38 -386
2 c-212 1 -388 0 -390 -3 -3 -3 -2 -153 1 -333 l7 -328 721 6 c397 4 808 7
914 7 l192 0 0 326 0 327 -295 -6 -296 -6 64 69 c114 124 220 303 283 480 l27
75 22 1435 c22 1416 23 1436 44 1492 41 106 125 159 277 174 l64 7 0 253 0
254 -425 0 -425 0 0 -252 0 -253 56 -35 c36 -23 65 -51 82 -80 l27 -45 -3
-860 c-2 -580 -6 -876 -14 -910 -33 -153 -136 -249 -278 -262 -141 -13 -308
93 -339 215 -5 23 -6 367 -2 882 7 842 7 845 29 902 31 77 81 139 136 169 l46
24 0 252 0 253 -163 0 c-90 0 -279 3 -420 7 l-257 6 0 -260z"/>
<path d="M8720 16490 l0 -250 438 -2 437 -3 -83 -44 c-215 -114 -375 -340
-451 -637 -19 -76 -20 -134 -32 -1344 l-11 -1265 -30 -77 c-57 -150 -147 -255
-266 -311 -60 -28 -77 -31 -157 -31 l-91 -1 4 -120 c2 -66 6 -217 10 -335 l7
-215 1138 -2 1137 -3 0 339 0 339 -57 6 c-116 14 -203 77 -248 181 l-22 50 6
1615 c8 1794 3 1668 74 1762 48 62 111 91 213 96 l84 5 0 76 c0 42 3 154 7
249 l6 172 -1056 0 -1057 0 0 -250z m1165 -515 c104 -27 198 -103 260 -209
l28 -47 5 -1392 c6 -1556 10 -1435 -65 -1580 -121 -231 -386 -276 -566 -95
-62 62 -102 127 -131 212 -21 61 -21 64 -16 1426 l5 1365 39 77 c76 154 211
252 351 257 17 1 58 -6 90 -14z"/>
<path d="M14165 11310 c-614 -39 -1016 -177 -1289 -442 -45 -43 -82 -78 -83
-78 -1 0 -26 23 -55 51 -130 127 -312 236 -503 302 -312 108 -642 138 -1288
119 -216 -7 -442 -12 -503 -12 l-111 0 -57 -137 c-32 -76 -199 -469 -371 -873
-412 -968 -477 -1122 -473 -1125 2 -1 77 -26 168 -54 1092 -344 2048 -678
2768 -967 l283 -114 108 0 108 0 229 89 c251 97 601 227 952 352 307 109 1437
486 1802 600 162 50 296 93 297 94 2 1 -38 100 -88 221 -50 120 -165 404 -256
629 -220 543 -408 1007 -481 1185 l-60 145 -54 6 c-92 12 -897 18 -1043 9z
m1032 -153 c11 -12 823 -1940 819 -1945 -3 -2 -115 -20 -248 -38 -1102 -151
-1735 -314 -2303 -594 -183 -90 -295 -153 -439 -248 -56 -37 -104 -68 -108
-70 -5 -2 -8 549 -8 1224 l0 1228 58 56 c229 223 617 343 1262 390 128 9 957
6 967 -3z m-3822 -27 c481 -24 798 -86 1021 -198 92 -46 191 -118 234 -170
l30 -37 0 -1227 c0 -676 -2 -1228 -5 -1228 -2 0 -35 20 -72 44 -508 327 -1114
548 -1975 721 -249 50 -788 143 -931 160 -47 6 -57 10 -52 24 10 31 794 1893
799 1898 17 18 682 27 951 13z"/>
<path d="M18346 11047 c-500 -948 -1236 -1761 -2129 -2351 -248 -164 -418
-261 -702 -401 -1112 -549 -2309 -749 -3555 -594 -1109 137 -2203 601 -3100
1313 -701 557 -1329 1318 -1704 2064 -20 39 -40 72 -46 72 -9 0 -160 -67 -168
-74 -2 -2 20 -49 47 -105 28 -55 51 -103 51 -105 0 -2 -44 -28 -97 -56 -54
-29 -99 -54 -101 -55 -6 -5 234 -411 262 -442 8 -9 33 1 105 43 76 45 96 53
106 42 6 -7 62 -82 124 -166 131 -175 130 -152 7 -242 -41 -30 -74 -58 -73
-62 4 -12 243 -309 300 -372 l53 -60 80 67 79 67 150 -150 150 -150 -74 -74
c-47 -47 -72 -80 -68 -89 6 -15 256 -250 334 -314 l43 -35 80 72 80 72 155
-137 c85 -75 155 -139 155 -142 0 -3 -21 -42 -46 -85 -25 -44 -44 -81 -42 -83
48 -42 413 -285 429 -285 4 0 33 36 65 80 31 44 61 80 66 80 6 0 366 -196 376
-205 1 -1 -16 -45 -38 -98 -22 -53 -40 -99 -40 -103 0 -7 421 -214 437 -214 7
0 24 20 38 45 14 25 36 65 50 89 l25 44 192 -75 c106 -41 197 -79 201 -83 5
-4 -3 -50 -16 -101 -14 -52 -22 -97 -19 -101 13 -12 445 -148 472 -148 5 0 23
44 41 98 17 53 32 98 33 99 3 4 417 -84 422 -90 3 -3 1 -52 -5 -108 -8 -77 -8
-104 0 -110 21 -13 497 -84 505 -76 3 3 14 50 26 106 l21 101 36 0 c20 0 117
-7 216 -15 99 -8 181 -15 182 -15 1 0 4 -48 5 -107 l3 -108 268 -3 267 -2 0
100 0 100 28 0 c15 0 110 7 212 15 102 8 188 15 191 15 4 0 15 -41 25 -91 10
-50 24 -93 31 -96 12 -5 314 37 443 60 74 14 69 3 57 138 l-8 76 203 42 c112
23 208 41 215 41 6 0 24 -37 38 -82 15 -46 30 -86 34 -89 9 -9 436 119 472
142 11 6 9 24 -9 95 -13 47 -22 88 -20 89 5 6 389 155 397 155 4 0 26 -36 50
-80 38 -71 45 -80 64 -74 28 9 190 84 328 154 l107 53 -38 91 c-35 82 -37 92
-23 103 46 35 366 204 372 196 56 -84 108 -143 123 -140 18 5 344 221 392 260
l29 24 -42 77 c-24 42 -41 79 -40 80 2 2 73 65 158 140 l153 136 76 -69 76
-69 60 51 c79 68 298 270 313 289 11 12 1 27 -59 92 l-71 77 64 65 c35 36 103
102 151 146 l88 80 75 -63 c41 -34 77 -60 78 -58 2 2 36 41 75 87 98 112 272
331 272 342 0 4 -38 37 -85 71 -47 35 -85 66 -85 69 0 3 55 81 123 172 l123
167 93 -55 c52 -30 98 -51 102 -47 18 18 259 427 259 439 0 8 -42 35 -92 60
-51 25 -94 48 -96 49 -2 2 8 26 22 53 14 28 37 76 51 107 l24 56 -113 55 c-62
29 -115 54 -117 54 -2 0 -31 -51 -63 -113z"/>
</g>
</svg>
